<?xml version="1.0" encoding="utf-8"?>
<!-- Generator: Adobe Illustrator 25.0.1, SVG Export Plug-In . SVG Version: 6.00 Build 0)  -->
<svg version="1.1" id="Layer_1" xmlns="http://www.w3.org/2000/svg" xmlns:xlink="http://www.w3.org/1999/xlink" x="0px" y="0px"
	 viewBox="0 0 1093.6 863.9" style="enable-background:new 0 0 1093.6 863.9;" xml:space="preserve">
<style type="text/css">
	
		.st0{opacity:0.1;fill:#788C8F;stroke:#1D1D1B;stroke-width:3.1076;stroke-linecap:round;stroke-miterlimit:10;enable-background:new    ;}
	
		.st1{opacity:0.6;fill:none;stroke:#1D1D1B;stroke-width:4.1153;stroke-linecap:round;stroke-miterlimit:10;enable-background:new    ;}
	.st2{font-family:'SegoeUI';}
	.st3{font-size:82.8px;}
	.st4{fill:none;stroke:#000000;stroke-width:5.8677;stroke-linecap:round;stroke-linejoin:round;}
	.st5{fill:#FFFFFF;}
	.st6{fill:#BCD030;stroke:#BCD030;stroke-width:1.725;}
	.st7{fill:#FFDB40;stroke:#FFDB40;stroke-width:1.725;}
	.st8{fill:#90BAE4;stroke:#90BAE4;stroke-width:1.725;}
	.st9{fill:#B15DA1;stroke:#B15DA1;stroke-width:1.725;}
	.st10{fill:#D44718;stroke:#D44718;stroke-width:1.725;}
	.st11{font-family:'Verdana-Bold';}
	.st12{font-size:24.15px;}
	.st13{fill:#99C324;stroke:#99C324;stroke-width:1.725;}
	.st14{fill:#E62A35;stroke:#E62D36;stroke-width:1.725;}
	.st15{fill:#FFCD1B;stroke:#FFCD1B;stroke-width:1.725;}
	.st16{fill:#9999CC;stroke:#9999CC;stroke-width:1.725;}
	.st17{fill:#FFCD18;stroke:#FFCC03;stroke-width:1.725;}
	.st18{fill:none;stroke:#000000;stroke-width:4;stroke-linecap:round;}
	.st19{fill-rule:evenodd;clip-rule:evenodd;}
	.st20{fill:none;stroke:#000000;stroke-width:3;}
	.st21{fill:none;stroke:#000000;stroke-width:2.197;}
	.st22{opacity:0.5;}
	.st23{fill-rule:evenodd;clip-rule:evenodd;fill:#808080;stroke:#808080;stroke-width:1.9675;stroke-miterlimit:10;}
	.st24{fill:#808080;stroke:#808080;stroke-width:1.9675;stroke-miterlimit:10;}
	
		.st25{fill:#808080;stroke:#808080;stroke-width:1.8872;stroke-linecap:round;stroke-linejoin:round;stroke-miterlimit:10;stroke-dasharray:11.7492,8.2244;}
	
		.st26{fill:#808080;stroke:#808080;stroke-width:1.7445;stroke-linecap:round;stroke-linejoin:round;stroke-miterlimit:10;stroke-dasharray:8.7795,6.1457;}
	.st27{fill-rule:evenodd;clip-rule:evenodd;fill:#808080;stroke:#808080;stroke-width:1.9288;stroke-miterlimit:10;}
	.st28{fill:#808080;stroke:#808080;stroke-width:1.9288;stroke-miterlimit:10;}
	
		.st29{fill:none;stroke:#808080;stroke-width:2.0356;stroke-linecap:round;stroke-linejoin:round;stroke-miterlimit:10;stroke-dasharray:9.688,6.7816;}
	.st30{fill-rule:evenodd;clip-rule:evenodd;fill:#808080;stroke:#808080;stroke-width:2.1489;stroke-miterlimit:10;}
	.st31{fill:#808080;stroke:#808080;stroke-width:2.1489;stroke-miterlimit:10;}
	
		.st32{fill:none;stroke:#808080;stroke-width:1.4001;stroke-linecap:round;stroke-linejoin:round;stroke-miterlimit:10;stroke-dasharray:7.3034,5.1124;}
	.st33{fill-rule:evenodd;clip-rule:evenodd;fill:#808080;stroke:#808080;stroke-width:1.62;stroke-miterlimit:10;}
	.st34{fill:#808080;stroke:#808080;stroke-width:1.62;stroke-miterlimit:10;}
	.st35{fill:none;stroke:#000000;stroke-width:5;stroke-miterlimit:4;}
	.st36{fill:none;stroke:#000000;stroke-width:4.4362;stroke-linecap:round;stroke-linejoin:round;}
	.st37{fill:#DBE3E2;}
	.st38{fill:#E2DBE3;}
	.st39{fill:#F4E3D7;}
	.st40{fill:none;stroke:#000000;stroke-width:5;stroke-linecap:round;}
	.st41{fill:none;stroke:#000000;stroke-width:3.9921;stroke-linejoin:round;stroke-miterlimit:10;}
	.st42{fill:none;stroke:#000000;stroke-width:5;stroke-linejoin:round;stroke-miterlimit:10;}
	.st43{fill:#D7E3F4;}
	
		.st44{opacity:0.1;fill:#788C8F;stroke:#1D1D1B;stroke-width:1.6101;stroke-linecap:round;stroke-miterlimit:10;enable-background:new    ;}
	
		.st45{opacity:0.6;fill:none;stroke:#1D1D1B;stroke-width:4.0447;stroke-linecap:round;stroke-miterlimit:10;enable-background:new    ;}
	.st46{font-family:'SegoeUI-Semibold';}
	.st47{font-size:30px;}
</style>
<rect x="87" y="740" class="st0" width="529.2" height="121.9"/>
<rect x="87" y="740" class="st1" width="529.2" height="121.9"/>
<text transform="matrix(1 0 0 1 670.1622 576.2709)" class="st2 st3">...</text>
<g>
	<path class="st4" d="M766.9,559.2h164.3c0.1,0,0.1,0,0.1,0.1v34c0,0.1,0,0.1-0.1,0.1H766.9c-0.1,0-0.1,0-0.1-0.1L766.9,559.2
		C766.8,559.2,766.8,559.2,766.9,559.2z"/>
	<path class="st5" d="M766.9,559.2h164.3c0.1,0,0.1,0,0.1,0.1v34c0,0.1,0,0.1-0.1,0.1H766.9c-0.1,0-0.1,0-0.1-0.1L766.9,559.2
		C766.8,559.2,766.8,559.2,766.9,559.2z"/>
	<path class="st4" d="M778.3,569.4h12.2c0.2,0,0.4,0.2,0.4,0.4v12.9c0,0.2-0.2,0.4-0.4,0.4h-12.2c-0.2,0-0.4-0.2-0.4-0.4v-12.9
		C777.9,569.6,778.1,569.4,778.3,569.4z"/>
	<path class="st6" d="M778.3,569.4h12.2c0.2,0,0.4,0.2,0.4,0.4v12.9c0,0.2-0.2,0.4-0.4,0.4h-12.2c-0.2,0-0.4-0.2-0.4-0.4v-12.9
		C777.9,569.6,778.1,569.4,778.3,569.4z"/>
	<path class="st4" d="M805,569.3h12.2c0.2,0,0.4,0.2,0.4,0.4v12.9c0,0.2-0.2,0.4-0.4,0.4H805c-0.2,0-0.4-0.2-0.4-0.4v-12.9
		C804.6,569.5,804.8,569.3,805,569.3z"/>
	<path class="st7" d="M805,569.3h12.2c0.2,0,0.4,0.2,0.4,0.4v12.9c0,0.2-0.2,0.4-0.4,0.4H805c-0.2,0-0.4-0.2-0.4-0.4v-12.9
		C804.6,569.5,804.8,569.3,805,569.3z"/>
	<path class="st4" d="M830.9,569.2h12.2c0.2,0,0.4,0.2,0.4,0.4v12.9c0,0.2-0.2,0.4-0.4,0.4h-12.2c-0.2,0-0.4-0.2-0.4-0.4v-12.9
		C830.5,569.4,830.7,569.2,830.9,569.2z"/>
	<path class="st8" d="M830.9,569.2h12.2c0.2,0,0.4,0.2,0.4,0.4v12.9c0,0.2-0.2,0.4-0.4,0.4h-12.2c-0.2,0-0.4-0.2-0.4-0.4v-12.9
		C830.5,569.4,830.7,569.2,830.9,569.2z"/>
	<path class="st4" d="M856.6,569.2h12.2c0.2,0,0.4,0.2,0.4,0.4v12.9c0,0.2-0.2,0.4-0.4,0.4h-12.2c-0.2,0-0.4-0.2-0.4-0.4v-12.9
		C856.2,569.4,856.3,569.2,856.6,569.2z"/>
	<path class="st9" d="M856.6,569.2h12.2c0.2,0,0.4,0.2,0.4,0.4v12.9c0,0.2-0.2,0.4-0.4,0.4h-12.2c-0.2,0-0.4-0.2-0.4-0.4v-12.9
		C856.2,569.4,856.3,569.2,856.6,569.2z"/>
	<path class="st4" d="M907.2,569.5h12.2c0.2,0,0.4,0.2,0.4,0.4v12.9c0,0.2-0.2,0.4-0.4,0.4h-12.2c-0.2,0-0.4-0.2-0.4-0.4v-12.9
		C906.8,569.7,907,569.5,907.2,569.5z"/>
	<path class="st10" d="M907.2,569.5h12.2c0.2,0,0.4,0.2,0.4,0.4v12.9c0,0.2-0.2,0.4-0.4,0.4h-12.2c-0.2,0-0.4-0.2-0.4-0.4v-12.9
		C906.8,569.7,907,569.5,907.2,569.5z"/>
	<text transform="matrix(1 0 0 1 875.3342 581.8384)" class="st11 st12">...</text>
</g>
<g>
	<path class="st4" d="M463.1,559h164.3c0.1,0,0.1,0,0.1,0.1v34c0,0.1,0,0.1-0.1,0.1H463.1c-0.1,0-0.1,0-0.1-0.1v-34
		C463,559.1,463,559,463.1,559z"/>
	<path class="st5" d="M463.1,559h164.3c0.1,0,0.1,0,0.1,0.1v34c0,0.1,0,0.1-0.1,0.1H463.1c-0.1,0-0.1,0-0.1-0.1v-34
		C463,559.1,463,559,463.1,559z"/>
	<path class="st4" d="M474.5,569.3h12.2c0.2,0,0.4,0.2,0.4,0.4v12.9c0,0.2-0.2,0.4-0.4,0.4h-12.2c-0.2,0-0.4-0.2-0.4-0.4v-12.9
		C474.1,569.5,474.3,569.3,474.5,569.3z"/>
	<path class="st6" d="M474.5,569.3h12.2c0.2,0,0.4,0.2,0.4,0.4v12.9c0,0.2-0.2,0.4-0.4,0.4h-12.2c-0.2,0-0.4-0.2-0.4-0.4v-12.9
		C474.1,569.5,474.3,569.3,474.5,569.3z"/>
	<path class="st4" d="M501.3,569.2h12.2c0.2,0,0.4,0.2,0.4,0.4v12.9c0,0.2-0.2,0.4-0.4,0.4h-12.2c-0.2,0-0.4-0.2-0.4-0.4v-12.9
		C500.9,569.4,501,569.2,501.3,569.2z"/>
	<path class="st7" d="M501.3,569.2h12.2c0.2,0,0.4,0.2,0.4,0.4v12.9c0,0.2-0.2,0.4-0.4,0.4h-12.2c-0.2,0-0.4-0.2-0.4-0.4v-12.9
		C500.9,569.4,501,569.2,501.3,569.2z"/>
	<path class="st4" d="M527.2,569.1h12.2c0.2,0,0.4,0.2,0.4,0.4v12.9c0,0.2-0.2,0.4-0.4,0.4h-12.2c-0.2,0-0.4-0.2-0.4-0.4v-12.9
		C526.7,569.3,526.9,569.1,527.2,569.1z"/>
	<path class="st8" d="M527.2,569.1h12.2c0.2,0,0.4,0.2,0.4,0.4v12.9c0,0.2-0.2,0.4-0.4,0.4h-12.2c-0.2,0-0.4-0.2-0.4-0.4v-12.9
		C526.7,569.3,526.9,569.1,527.2,569.1z"/>
	<path class="st4" d="M552.8,569.1H565c0.2,0,0.4,0.2,0.4,0.4v12.9c0,0.2-0.2,0.4-0.4,0.4h-12.2c-0.2,0-0.4-0.2-0.4-0.4v-12.9
		C552.4,569.3,552.6,569.1,552.8,569.1z"/>
	<path class="st9" d="M552.8,569.1H565c0.2,0,0.4,0.2,0.4,0.4v12.9c0,0.2-0.2,0.4-0.4,0.4h-12.2c-0.2,0-0.4-0.2-0.4-0.4v-12.9
		C552.4,569.3,552.6,569.1,552.8,569.1z"/>
	<path class="st4" d="M603.4,569.4h12.2c0.2,0,0.4,0.2,0.4,0.4v12.9c0,0.2-0.2,0.4-0.4,0.4h-12.2c-0.2,0-0.4-0.2-0.4-0.4v-12.9
		C603,569.6,603.2,569.4,603.4,569.4z"/>
	<path class="st10" d="M603.4,569.4h12.2c0.2,0,0.4,0.2,0.4,0.4v12.9c0,0.2-0.2,0.4-0.4,0.4h-12.2c-0.2,0-0.4-0.2-0.4-0.4v-12.9
		C603,569.6,603.2,569.4,603.4,569.4z"/>
	<text transform="matrix(1 0 0 1 571.5583 581.7168)" class="st11 st12">...</text>
</g>
<g>
	<path class="st4" d="M264.4,559.1h164.3c0.1,0,0.1,0,0.1,0.1v34c0,0.1,0,0.1-0.1,0.1H264.4c-0.1,0-0.1,0-0.1-0.1v-34
		C264.3,559.1,264.4,559.1,264.4,559.1z"/>
	<path class="st5" d="M264.4,559.1h164.3c0.1,0,0.1,0,0.1,0.1v34c0,0.1,0,0.1-0.1,0.1H264.4c-0.1,0-0.1,0-0.1-0.1v-34
		C264.3,559.1,264.4,559.1,264.4,559.1z"/>
	<path class="st4" d="M275.9,569.3h12.2c0.2,0,0.4,0.2,0.4,0.4v12.9c0,0.2-0.2,0.4-0.4,0.4h-12.2c-0.2,0-0.4-0.2-0.4-0.4v-12.9
		C275.4,569.5,275.6,569.3,275.9,569.3z"/>
	<path class="st13" d="M275.9,569.3h12.2c0.2,0,0.4,0.2,0.4,0.4v12.9c0,0.2-0.2,0.4-0.4,0.4h-12.2c-0.2,0-0.4-0.2-0.4-0.4v-12.9
		C275.4,569.5,275.6,569.3,275.9,569.3z"/>
	<path class="st4" d="M302.6,569.2h12.2c0.2,0,0.4,0.2,0.4,0.4v12.9c0,0.2-0.2,0.4-0.4,0.4h-12.2c-0.2,0-0.4-0.2-0.4-0.4v-12.9
		C302.1,569.4,302.3,569.2,302.6,569.2z"/>
	<path class="st14" d="M302.6,569.2h12.2c0.2,0,0.4,0.2,0.4,0.4v12.9c0,0.2-0.2,0.4-0.4,0.4h-12.2c-0.2,0-0.4-0.2-0.4-0.4v-12.9
		C302.1,569.4,302.3,569.2,302.6,569.2z"/>
	<path class="st4" d="M328.5,569.1h12.2c0.2,0,0.4,0.2,0.4,0.4v12.9c0,0.2-0.2,0.4-0.4,0.4h-12.2c-0.2,0-0.4-0.2-0.4-0.4v-12.9
		C328,569.3,328.2,569.1,328.5,569.1z"/>
	<path class="st15" d="M328.5,569.1h12.2c0.2,0,0.4,0.2,0.4,0.4v12.9c0,0.2-0.2,0.4-0.4,0.4h-12.2c-0.2,0-0.4-0.2-0.4-0.4v-12.9
		C328,569.3,328.2,569.1,328.5,569.1z"/>
	<path class="st4" d="M354.1,569.1h12.2c0.2,0,0.4,0.2,0.4,0.4v12.9c0,0.2-0.2,0.4-0.4,0.4h-12.2c-0.2,0-0.4-0.2-0.4-0.4v-12.9
		C353.7,569.3,353.9,569.1,354.1,569.1z"/>
	<path class="st16" d="M354.1,569.1h12.2c0.2,0,0.4,0.2,0.4,0.4v12.9c0,0.2-0.2,0.4-0.4,0.4h-12.2c-0.2,0-0.4-0.2-0.4-0.4v-12.9
		C353.7,569.3,353.9,569.1,354.1,569.1z"/>
	<path class="st4" d="M404.7,569.4h12.2c0.2,0,0.4,0.2,0.4,0.4v12.9c0,0.2-0.2,0.4-0.4,0.4h-12.2c-0.2,0-0.4-0.2-0.4-0.4v-12.9
		C404.3,569.6,404.5,569.4,404.7,569.4z"/>
	<path class="st17" d="M404.7,569.4h12.2c0.2,0,0.4,0.2,0.4,0.4v12.9c0,0.2-0.2,0.4-0.4,0.4h-12.2c-0.2,0-0.4-0.2-0.4-0.4v-12.9
		C404.3,569.6,404.5,569.4,404.7,569.4z"/>
	<text transform="matrix(1 0 0 1 372.8614 581.7217)" class="st11 st12">...</text>
</g>
<g>
	<path class="st4" d="M73.6,559h164.3c0.1,0,0.1,0,0.1,0.1v34c0,0.1-0.1,0.1-0.1,0.1H73.6c-0.1,0-0.1,0-0.1-0.1L73.6,559
		C73.4,559.1,73.5,559,73.6,559z"/>
	<path class="st5" d="M73.6,559h164.3c0.1,0,0.1,0,0.1,0.1v34c0,0.1-0.1,0.1-0.1,0.1H73.6c-0.1,0-0.1,0-0.1-0.1L73.6,559
		C73.4,559.1,73.5,559,73.6,559z"/>
	<path class="st4" d="M85,569.3h12.2c0.2,0,0.4,0.2,0.4,0.4v12.9c0,0.2-0.2,0.4-0.4,0.4H85c-0.2,0-0.4-0.2-0.4-0.4v-12.9
		C84.6,569.5,84.8,569.3,85,569.3z"/>
	<path class="st6" d="M85,569.3h12.2c0.2,0,0.4,0.2,0.4,0.4v12.9c0,0.2-0.2,0.4-0.4,0.4H85c-0.2,0-0.4-0.2-0.4-0.4v-12.9
		C84.6,569.5,84.8,569.3,85,569.3z"/>
	<path class="st4" d="M111.7,569.2h12.2c0.2,0,0.4,0.2,0.4,0.4v12.9c0,0.2-0.2,0.4-0.4,0.4h-12.2c-0.2,0-0.4-0.2-0.4-0.4v-12.9
		C111.3,569.4,111.5,569.2,111.7,569.2z"/>
	<path class="st7" d="M111.7,569.2h12.2c0.2,0,0.4,0.2,0.4,0.4v12.9c0,0.2-0.2,0.4-0.4,0.4h-12.2c-0.2,0-0.4-0.2-0.4-0.4v-12.9
		C111.3,569.4,111.5,569.2,111.7,569.2z"/>
	<path class="st4" d="M137.6,569.1h12.2c0.2,0,0.4,0.2,0.4,0.4v12.9c0,0.2-0.2,0.4-0.4,0.4h-12.2c-0.2,0-0.4-0.2-0.4-0.4v-12.9
		C137.2,569.3,137.4,569.1,137.6,569.1z"/>
	<path class="st8" d="M137.6,569.1h12.2c0.2,0,0.4,0.2,0.4,0.4v12.9c0,0.2-0.2,0.4-0.4,0.4h-12.2c-0.2,0-0.4-0.2-0.4-0.4v-12.9
		C137.2,569.3,137.4,569.1,137.6,569.1z"/>
	<path class="st4" d="M163.2,569.1h12.2c0.2,0,0.4,0.2,0.4,0.4v12.9c0,0.2-0.2,0.4-0.4,0.4h-12.2c-0.2,0-0.4-0.2-0.4-0.4v-12.9
		C162.8,569.3,163,569.1,163.2,569.1z"/>
	<path class="st9" d="M163.2,569.1h12.2c0.2,0,0.4,0.2,0.4,0.4v12.9c0,0.2-0.2,0.4-0.4,0.4h-12.2c-0.2,0-0.4-0.2-0.4-0.4v-12.9
		C162.8,569.3,163,569.1,163.2,569.1z"/>
	<path class="st4" d="M213.8,569.4H226c0.2,0,0.4,0.2,0.4,0.4v12.9c0,0.2-0.2,0.4-0.4,0.4h-12.2c-0.2,0-0.4-0.2-0.4-0.4v-12.9
		C213.4,569.6,213.6,569.4,213.8,569.4z"/>
	<path class="st10" d="M213.8,569.4H226c0.2,0,0.4,0.2,0.4,0.4v12.9c0,0.2-0.2,0.4-0.4,0.4h-12.2c-0.2,0-0.4-0.2-0.4-0.4v-12.9
		C213.4,569.6,213.6,569.4,213.8,569.4z"/>
	<text transform="matrix(1 0 0 1 181.9883 581.7168)" class="st11 st12">...</text>
</g>
<g>
	<path class="st18" d="M545.2,620.3c0,18.9,0,37.8,0,56.7"/>
	<rect x="541.1" y="609.7" class="st19" width="8.2" height="8.2"/>
	<rect x="541.1" y="609.7" class="st20" width="8.2" height="8.2"/>
	<polygon class="st19" points="545.2,692 537,677.8 553.5,677.8 	"/>
	<polygon class="st21" points="545.2,692 537,677.8 553.5,677.8 	"/>
</g>
<g class="st22">
	<g>
		<g>
			<polygon class="st23" points="351.3,374.8 352.5,371.9 356.4,373.9 			"/>
		</g>
		<g>
			<path class="st24" d="M350.8,375.1l1.4-3.5l4.8,2.4L350.8,375.1z M352.7,372.3l-0.9,2.3l3.9-0.7L352.7,372.3z"/>
		</g>
	</g>
	<path class="st25" d="M576.8,237.3c-73.8,45-147.6,90.1-221.4,135.1"/>
</g>
<g class="st22">
	<g>
		<path class="st26" d="M576.8,237.3C446.5,282.5,316,327.8,185.7,373.1"/>
	</g>
	<g>
		<g>
			<polygon class="st27" points="185.1,373.3 187.4,370.3 189.5,373.3 			"/>
		</g>
		<g>
			<path class="st28" d="M184.6,373.6l2.7-3.8l2.8,3.7L184.6,373.6z M187.4,370.7l-1.7,2.3h3.4L187.4,370.7z"/>
		</g>
	</g>
</g>
<g class="st22">
	<g>
		<line class="st29" x1="576.8" y1="239.5" x2="561.8" y2="371.3"/>
	</g>
	<g>
		<g>
			<polygon class="st30" points="559.1,372.4 561.8,375.4 564.9,372.5 			"/>
		</g>
		<g>
			<path class="st31" d="M558.4,372.2l3.4,3.7l3.8-3.6L558.4,372.2z M561.9,375l-2.1-2.3l4.5,0.1L561.9,375z"/>
		</g>
	</g>
</g>
<g class="st22">
	<g>
		<line class="st32" x1="579.1" y1="238.8" x2="837.2" y2="370.8"/>
	</g>
	<g>
		<g>
			<polygon class="st33" points="837,369.2 839.1,371.9 835.5,371.6 			"/>
		</g>
		<g>
			<path class="st34" d="M836.9,368.8l2.6,3.3l-4.4-0.3L836.9,368.8z M838.7,371.6l-1.6-2.1l-1.1,1.9L838.7,371.6z"/>
		</g>
	</g>
</g>
<rect x="60.2" y="792.8" transform="matrix(2.877804e-03 -1 1 2.877804e-03 -732.7546 858.3079)" class="st19" width="7.6" height="7.6"/>
<rect x="60.2" y="792.8" transform="matrix(2.877804e-03 -1 1 2.877804e-03 -732.7545 858.308)" class="st35" width="7.6" height="7.6"/>
<g>
	<path class="st36" d="M495,762.1h100.4c0.1,0,0.2,0.1,0.2,0.2v77.6c0,0.1-0.1,0.2-0.2,0.2H495c-0.1,0-0.2-0.1-0.2-0.2v-77.6
		C494.8,762.2,494.9,762.1,495,762.1z"/>
	<path class="st37" d="M495,762.1h100.4c0.1,0,0.2,0.1,0.2,0.2v77.6c0,0.1-0.1,0.2-0.2,0.2H495c-0.1,0-0.2-0.1-0.2-0.2v-77.6
		C494.8,762.2,494.9,762.1,495,762.1z"/>
	<path d="M529.7,795.1c0.7-0.5,1.2-1.2,1.7-1.9l4.6,2.3l-3.2,4.9L529.7,795.1z M518.8,788.8c0-3.3,2.7-6,6-6s6,2.7,6,6s-2.7,6-6,6
		S518.8,792.2,518.8,788.8z M539.7,784.5c0.5,1,1.2,1.8,2,2.5l-4.5,6.9l-4.8-2.4c0.3-0.8,0.5-1.7,0.5-2.7c0-0.6-0.1-1.2-0.2-1.8
		L539.7,784.5z M546.8,774.9c3.3,0,6,2.7,6,6s-2.7,6-6,6s-6-2.7-6-6S543.5,774.9,546.8,774.9z M568.7,796.8c3.3,0,6,2.7,6,6
		s-2.7,6-6,6s-6-2.7-6-6S565.4,796.8,568.7,796.8z M546.8,830.8c-3.3,0-6-2.7-6-6s2.7-6,6-6s6,2.7,6,6
		C552.7,828.1,550,830.8,546.8,830.8z M539.2,797.2c-0.3,0.8-0.5,1.7-0.5,2.7c0,4.1,3,7.4,7,7.9v9.1c-1,0.1-1.8,0.4-2.7,0.8
		l-9.1-15.3l3.8-5.9L539.2,797.2z M546.8,793.8c3.3,0,6,2.7,6,6s-2.7,6-6,6s-6-2.7-6-6S543.5,793.8,546.8,793.8z M547.8,816.9v-9.1
		c3.2-0.4,5.9-2.8,6.7-5.9l6.3,0.9c0,0,0,0,0,0.1c0,1.9,0.7,3.7,1.8,5l-10.5,11C550.9,817.8,549.4,817.1,547.8,816.9z M546.8,788.8
		c1.8,0,3.5-0.6,4.9-1.7l10.8,10.8c-0.6,0.8-1.1,1.8-1.4,2.8l-6.3-0.9c0,0,0,0,0-0.1c0-4.4-3.6-8-8-8c-2.8,0-5.2,1.4-6.6,3.5
		l-1.2-0.6l4.4-6.8C544.4,788.5,545.5,788.8,546.8,788.8L546.8,788.8z M532.3,817.5c0.3-0.8,0.5-1.7,0.5-2.7c0-2.5-1.1-4.6-2.8-6.1
		l2.9-4.4l8.6,14.6c-0.7,0.7-1.3,1.4-1.8,2.3L532.3,817.5z M524.8,820.8c-3.3,0-6-2.7-6-6s2.7-6,6-6s6,2.7,6,6
		S528.1,820.8,524.8,820.8z M528.3,807.6c-1-0.5-2.2-0.8-3.5-0.8c-4.4,0-8,3.6-8,8s3.6,8,8,8c2.8,0,5.2-1.4,6.6-3.5l7.5,3.8
		c-0.1,0.6-0.2,1.2-0.2,1.8c0,4.4,3.6,8,8,8s8-3.6,8-8c0-1.7-0.5-3.2-1.4-4.5l10.6-11.1c1.3,1,3,1.6,4.7,1.6c4.4,0,8-3.6,8-8
		s-3.6-8-8-8c-1.8,0-3.5,0.6-4.9,1.7l-10.8-10.8c1-1.4,1.7-3,1.7-4.9c0-4.4-3.6-8-8-8s-8,3.6-8,8c0,0.6,0.1,1.2,0.2,1.8l-7.1,2.6
		c-1.3-2.6-4-4.3-7.1-4.3c-4.4,0-8,3.6-8,8s3.6,8,8,8c1.1,0,2.2-0.2,3.2-0.7l3.7,6.2L528.3,807.6z"/>
</g>
<g>
	<path class="st36" d="M296.4,762.1h100.4c0.1,0,0.2,0.1,0.2,0.2v77.6c0,0.1-0.1,0.2-0.2,0.2H296.4c-0.1,0-0.2-0.1-0.2-0.2v-77.6
		C296.1,762.2,296.2,762.1,296.4,762.1z"/>
	<path class="st38" d="M296.4,762.1h100.4c0.1,0,0.2,0.1,0.2,0.2v77.6c0,0.1-0.1,0.2-0.2,0.2H296.4c-0.1,0-0.2-0.1-0.2-0.2v-77.6
		C296.1,762.2,296.2,762.1,296.4,762.1z"/>
	<path d="M329.9,793.5c0.7-0.5,1.2-1.2,1.7-1.8l4.6,2.3l-3.2,4.9L329.9,793.5z M319,787.2c0-3.3,2.7-6,6-6s6,2.7,6,6s-2.7,6-6,6
		S319,790.5,319,787.2z M339.8,782.8c0.5,1,1.1,1.8,2,2.5l-4.5,6.9l-4.8-2.4c0.3-0.8,0.5-1.7,0.5-2.7c0-0.6-0.1-1.2-0.2-1.8
		L339.8,782.8z M346.9,773.2c3.3,0,6,2.7,6,6s-2.7,6-6,6s-6-2.7-6-6C341,775.9,343.6,773.2,346.9,773.2z M368.9,795.2
		c3.3,0,6,2.7,6,6s-2.7,6-6,6s-6-2.7-6-6S365.5,795.2,368.9,795.2z M346.9,829.2c-3.3,0-6-2.7-6-6s2.7-6,6-6s6,2.7,6,6
		S350.2,829.2,346.9,829.2z M339.4,795.5c-0.3,0.8-0.5,1.7-0.5,2.7c0,4.1,3,7.4,7,7.9v9.1c-1,0.1-1.8,0.4-2.6,0.8l-9.1-15.3l3.8-5.9
		L339.4,795.5z M346.9,792.2c3.3,0,6,2.7,6,6s-2.7,6-6,6s-6-2.7-6-6C341,794.9,343.6,792.2,346.9,792.2z M347.9,815.2v-9.1
		c3.2-0.4,5.9-2.8,6.7-5.9l6.3,0.9c0,0,0,0,0,0.1c0,1.9,0.7,3.7,1.8,5l-10.5,11C351,816.1,349.5,815.4,347.9,815.2z M346.9,787.2
		c1.8,0,3.5-0.6,4.9-1.7l10.8,10.8c-0.6,0.8-1.1,1.8-1.4,2.8l-6.3-0.9c0,0,0,0,0-0.1c0-4.4-3.6-8-8-8c-2.8,0-5.2,1.4-6.6,3.5
		l-1.2-0.6l4.4-6.8C344.5,786.9,345.7,787.2,346.9,787.2L346.9,787.2z M332.5,815.8c0.3-0.8,0.5-1.7,0.5-2.7c0-2.5-1.1-4.7-2.8-6.1
		l2.9-4.4l8.6,14.6c-0.7,0.7-1.3,1.4-1.8,2.3L332.5,815.8z M325,819.2c-3.3,0-6-2.7-6-6s2.7-6,6-6s6,2.7,6,6S328.3,819.2,325,819.2z
		 M328.5,806c-1-0.5-2.2-0.8-3.5-0.8c-4.4,0-8,3.6-8,8s3.6,8,8,8c2.8,0,5.2-1.4,6.6-3.5l7.5,3.8c-0.1,0.6-0.2,1.2-0.2,1.8
		c0,4.4,3.6,8,8,8s8-3.6,8-8c0-1.7-0.5-3.2-1.4-4.5l10.6-11.1c1.3,1,3,1.6,4.7,1.6c4.4,0,8-3.6,8-8s-3.6-8-8-8
		c-1.8,0-3.5,0.6-4.9,1.7l-10.8-10.8c1-1.3,1.7-3,1.7-4.9c0-4.4-3.6-8-8-8s-8,3.6-8,8c0,0.6,0.1,1.2,0.2,1.8l-7.1,2.6
		c-1.3-2.6-4-4.3-7.1-4.3c-4.4,0-8,3.6-8,8s3.6,8,8,8c1.1,0,2.2-0.2,3.2-0.7l3.7,6.2L328.5,806z"/>
</g>
<g>
	<path class="st36" d="M105.5,762.1h100.4c0.1,0,0.2,0.1,0.2,0.2v77.6c0,0.1-0.1,0.2-0.2,0.2H105.5c-0.1,0-0.2-0.1-0.2-0.2v-77.6
		C105.3,762.2,105.4,762.1,105.5,762.1z"/>
	<path class="st39" d="M105.5,762.1h100.4c0.1,0,0.2,0.1,0.2,0.2v77.6c0,0.1-0.1,0.2-0.2,0.2H105.5c-0.1,0-0.2-0.1-0.2-0.2v-77.6
		C105.3,762.2,105.4,762.1,105.5,762.1z"/>
	<path d="M139.9,792.8c0.7-0.5,1.2-1.2,1.7-1.9l4.6,2.3l-3.2,4.9L139.9,792.8z M129,786.5c0-3.3,2.7-6,6-6s6,2.7,6,6s-2.7,6-6,6
		S129,789.9,129,786.5z M149.8,782.2c0.5,0.9,1.2,1.8,2,2.5l-4.5,6.9l-4.8-2.4c0.3-0.8,0.5-1.7,0.5-2.7c0-0.6-0.1-1.2-0.2-1.8
		L149.8,782.2z M156.9,772.6c3.3,0,6,2.7,6,6s-2.7,6-6,6s-6-2.7-6-6S153.6,772.6,156.9,772.6z M178.8,794.5c3.3,0,6,2.7,6,6
		s-2.7,6-6,6s-6-2.7-6-6C172.9,797.2,175.6,794.5,178.8,794.5z M156.9,828.5c-3.3,0-6-2.7-6-6s2.7-6,6-6s6,2.7,6,6
		S160.2,828.5,156.9,828.5z M149.4,794.9c-0.3,0.8-0.5,1.7-0.5,2.7c0,4.1,3.1,7.4,7,7.9v9.1c-0.9,0.1-1.8,0.4-2.6,0.8l-9.1-15.3
		l3.8-5.9L149.4,794.9z M156.9,791.5c3.3,0,6,2.7,6,6s-2.7,6-6,6s-6-2.7-6-6S153.6,791.5,156.9,791.5z M157.9,814.6v-9.1
		c3.2-0.4,5.9-2.8,6.7-5.9l6.3,0.9c0,0,0,0,0,0.1c0,1.9,0.7,3.7,1.8,5l-10.5,11C161,815.5,159.5,814.8,157.9,814.6L157.9,814.6z
		 M156.9,786.5c1.8,0,3.5-0.6,4.9-1.7l10.8,10.8c-0.6,0.8-1.1,1.8-1.4,2.8l-6.3-0.9c0,0,0,0,0-0.1c0-4.4-3.6-8-8-8
		c-2.8,0-5.2,1.4-6.6,3.5l-1.2-0.6l4.4-6.8C154.5,786.3,155.7,786.5,156.9,786.5z M142.5,815.2c0.3-0.8,0.5-1.7,0.5-2.7
		c0-2.5-1.1-4.6-2.9-6.1l2.9-4.4l8.6,14.6c-0.7,0.7-1.3,1.4-1.8,2.3L142.5,815.2z M135,818.5c-3.3,0-6-2.7-6-6s2.7-6,6-6s6,2.7,6,6
		S138.3,818.5,135,818.5z M138.4,805.3c-1.1-0.5-2.2-0.8-3.4-0.8c-4.4,0-8,3.6-8,8s3.6,8,8,8c2.8,0,5.2-1.4,6.6-3.5l7.5,3.8
		c-0.1,0.6-0.2,1.2-0.2,1.8c0,4.4,3.6,8,8,8s8-3.6,8-8c0-1.7-0.5-3.2-1.4-4.5l10.6-11.1c1.3,1,3,1.6,4.7,1.6c4.4,0,8-3.6,8-8
		s-3.6-8-8-8c-1.8,0-3.5,0.6-4.9,1.7l-10.8-10.8c1.1-1.4,1.7-3,1.7-4.9c0-4.4-3.6-8-8-8s-8,3.6-8,8c0,0.6,0.1,1.2,0.2,1.8l-7.1,2.6
		c-1.3-2.6-4-4.3-7.1-4.3c-4.4,0-8,3.6-8,8s3.6,8,8,8c1.1,0,2.2-0.2,3.2-0.7l3.7,6.2L138.4,805.3z"/>
</g>
<path class="st40" d="M2.5,795.4c0.1-226.4,0.2-452.6,0.2-679"/>
<path class="st40" d="M59.3,796.5c-18.9-0.1-37.8-0.1-56.7-0.2"/>
<path class="st40" d="M481.8,116.6c-159.7-0.1-319.3-0.1-478.9-0.2"/>
<rect x="939" y="792.6" transform="matrix(1 -2.877804e-03 2.877804e-03 1 -2.288 2.7165)" class="st19" width="7.6" height="7.6"/>
<rect x="939" y="792.6" transform="matrix(1 -2.877804e-03 2.877804e-03 1 -2.288 2.7165)" class="st35" width="7.6" height="7.6"/>
<path class="st40" d="M1059.1,795.3c-0.1-226-0.2-452-0.2-678"/>
<path class="st40" d="M945.2,796.7c37.8-0.3,75.6-0.5,113.4-0.8"/>
<path class="st40" d="M673.4,117.5c128.2-0.1,256.6-0.1,384.8-0.2"/>
<g>
	<circle class="st41" cx="684.7" cy="117.1" r="11.3"/>
	<line class="st42" x1="684.7" y1="128.5" x2="684.7" y2="105.8"/>
</g>
<g>
	<circle class="st41" cx="470.5" cy="116.6" r="11.3"/>
	<line class="st42" x1="470.5" y1="127.9" x2="470.5" y2="105.2"/>
</g>
<g>
	<g>
		<path class="st36" d="M797.6,764.2H898c0.1,0,0.2,0.1,0.2,0.2V842c0,0.1-0.1,0.2-0.2,0.2H797.6c-0.1,0-0.2-0.1-0.2-0.2v-77.6
			C797.3,764.3,797.4,764.2,797.6,764.2z"/>
		<path class="st43" d="M797.6,764.2H898c0.1,0,0.2,0.1,0.2,0.2V842c0,0.1-0.1,0.2-0.2,0.2H797.6c-0.1,0-0.2-0.1-0.2-0.2v-77.6
			C797.3,764.3,797.4,764.2,797.6,764.2z"/>
		<path d="M831.7,795.1c0.7-0.5,1.2-1.1,1.7-1.8l4.6,2.3l-3.2,4.9L831.7,795.1z M820.8,788.8c0-3.3,2.7-6,6-6s6,2.7,6,6s-2.7,6-6,6
			S820.8,792.1,820.8,788.8z M841.6,784.4c0.5,1,1.2,1.8,2,2.5l-4.5,6.9l-4.8-2.4c0.3-0.8,0.5-1.7,0.5-2.7c0-0.6-0.1-1.2-0.2-1.8
			L841.6,784.4z M848.7,774.8c3.3,0,6,2.7,6,6s-2.7,6-6,6s-6-2.7-6-6S845.4,774.8,848.7,774.8z M870.6,796.8c3.3,0,6,2.7,6,6
			s-2.7,6-6,6s-6-2.7-6-6C864.7,799.5,867.3,796.8,870.6,796.8z M848.7,830.8c-3.3,0-6-2.7-6-6s2.7-6,6-6s6,2.7,6,6
			S852,830.8,848.7,830.8z M841.2,797.1c-0.3,0.8-0.5,1.7-0.5,2.7c0,4.1,3,7.4,7,7.9v9.1c-1,0.1-1.8,0.4-2.7,0.8l-9.1-15.3l3.8-5.9
			L841.2,797.1z M848.7,793.8c3.3,0,6,2.7,6,6s-2.7,6-6,6s-6-2.7-6-6S845.4,793.8,848.7,793.8z M849.7,816.8v-9.1
			c3.2-0.4,5.9-2.8,6.7-5.9l6.3,0.9c0,0,0,0,0,0.1c0,1.9,0.7,3.7,1.8,5l-10.5,11C852.8,817.7,851.3,817,849.7,816.8z M848.7,788.8
			c1.8,0,3.5-0.6,4.9-1.7l10.8,10.8c-0.6,0.8-1.1,1.8-1.4,2.8l-6.3-0.9c0,0,0,0,0-0.1c0-4.4-3.6-8-8-8c-2.8,0-5.2,1.4-6.6,3.5
			l-1.2-0.6l4.4-6.8C846.3,788.5,847.5,788.8,848.7,788.8L848.7,788.8z M834.3,817.4c0.3-0.8,0.5-1.7,0.5-2.7c0-2.5-1.1-4.7-2.8-6.1
			l2.9-4.4l8.6,14.6c-0.7,0.7-1.3,1.4-1.8,2.3L834.3,817.4z M826.8,820.8c-3.3,0-6-2.7-6-6s2.7-6,6-6s6,2.7,6,6
			S830.1,820.8,826.8,820.8z M830.2,807.6c-1-0.5-2.2-0.8-3.5-0.8c-4.4,0-8,3.6-8,8s3.6,8,8,8c2.8,0,5.2-1.4,6.6-3.6l7.5,3.8
			c-0.1,0.6-0.2,1.2-0.2,1.8c0,4.4,3.6,8,8,8s8-3.6,8-8c0-1.7-0.5-3.2-1.4-4.5l10.6-11.1c1.3,1,3,1.6,4.7,1.6c4.4,0,8-3.6,8-8
			s-3.6-8-8-8c-1.8,0-3.5,0.6-4.9,1.7L855,785.7c1-1.4,1.7-3,1.7-4.9c0-4.4-3.6-8-8-8s-8,3.6-8,8c0,0.6,0.1,1.2,0.2,1.8l-7.1,2.6
			c-1.3-2.6-4-4.3-7.1-4.3c-4.4,0-8,3.6-8,8s3.6,8,8,8c1.1,0,2.2-0.2,3.2-0.7l3.7,6.2L830.2,807.6z"/>
	</g>
	<rect x="775.4" y="743.2" class="st44" width="145" height="119.4"/>
	<rect x="775.4" y="740.7" class="st45" width="147.2" height="121"/>
</g>
<text transform="matrix(1 0 0 1 948.7094 562.5225)" class="st46 st47">Speech</text>
<text transform="matrix(1 0 0 1 962.1494 598.5225)" class="st46 st47">Data</text>
<text transform="matrix(1 0 0 1 659.9629 796.8813)" class="st46 st47">Local</text>
<text transform="matrix(1 0 0 1 644.8429 832.8813)" class="st46 st47">Models</text>
<g>
	<path class="st18" d="M346.5,619.3c0,18.9,0,37.8,0,56.7"/>
	<polygon class="st19" points="346.5,692 338.3,677.8 354.8,677.8 	"/>
	<polygon class="st21" points="346.5,692 338.3,677.8 354.8,677.8 	"/>
	<g>
		<rect x="342.4" y="609.7" class="st19" width="8.2" height="8.2"/>
		<rect x="342.4" y="609.7" class="st20" width="8.2" height="8.2"/>
	</g>
</g>
<g>
	<path class="st18" d="M155.7,620.3c0,18.9,0,37.8,0,56.7"/>
	<polygon class="st19" points="155.7,692 147.4,677.8 163.9,677.8 	"/>
	<polygon class="st21" points="155.7,692 147.4,677.8 163.9,677.8 	"/>
	<g>
		<rect x="151.6" y="609.7" class="st19" width="8.2" height="8.2"/>
		<rect x="151.6" y="609.7" class="st20" width="8.2" height="8.2"/>
	</g>
</g>
<rect x="541.1" y="458.8" class="st19" width="8.2" height="8.2"/>
<rect x="541.1" y="458.8" class="st20" width="8.2" height="8.2"/>
<g>
	<path class="st18" d="M545.2,469.4c0,18.9,0,37.8,0,56.7"/>
	<polygon class="st19" points="545.2,541.2 537,526.9 553.5,526.9 	"/>
	<polygon class="st21" points="545.2,541.2 537,526.9 553.5,526.9 	"/>
</g>
<g>
	<path class="st18" d="M346.5,468.4c0,18.9,0,37.8,0,56.7"/>
	<polygon class="st19" points="346.5,541.2 338.3,526.9 354.8,526.9 	"/>
	<polygon class="st21" points="346.5,541.2 338.3,526.9 354.8,526.9 	"/>
	<g>
		<rect x="342.4" y="458.8" class="st19" width="8.2" height="8.2"/>
		<rect x="342.4" y="458.8" class="st20" width="8.2" height="8.2"/>
	</g>
</g>
<g>
	<path class="st18" d="M155.7,469.4c0,18.9,0,37.8,0,56.7"/>
	<polygon class="st19" points="155.7,541.2 147.4,526.9 163.9,526.9 	"/>
	<polygon class="st21" points="155.7,541.2 147.4,526.9 163.9,526.9 	"/>
	<g>
		<rect x="151.6" y="458.8" class="st19" width="8.2" height="8.2"/>
		<rect x="151.6" y="458.8" class="st20" width="8.2" height="8.2"/>
	</g>
</g>
<g>
	<path class="st18" d="M849,640c0,18.9,0,37.8,0,56.7"/>
	<rect x="844.9" y="629.5" class="st19" width="8.2" height="8.2"/>
	<rect x="844.9" y="629.5" class="st20" width="8.2" height="8.2"/>
	<polygon class="st19" points="849,711.8 840.8,697.6 857.3,697.6 	"/>
	<polygon class="st21" points="849,711.8 840.8,697.6 857.3,697.6 	"/>
</g>
<g>
	<path class="st18" d="M849,474.9v56"/>
	<rect x="845" y="463.9" class="st19" width="8" height="8"/>
	<rect x="845.5" y="464.4" class="st20" width="8" height="8"/>
	<polygon class="st19" points="849,546.2 840.8,531.9 857.3,531.9 	"/>
	<polygon class="st21" points="849,546.2 840.8,531.9 857.3,531.9 	"/>
</g>
<g>
	<path d="M176.5,386.7h-37.2c-7.3,0-13.3,6-13.3,13.3v37.3c0,7.3,6,13.3,13.3,13.3h37.3c7.3,0,13.3-6,13.3-13.3V400
		C189.8,392.6,183.8,386.7,176.5,386.7z M184.2,437.2c0,4.2-3.4,7.7-7.7,7.7h-37.3c-4.2,0-7.7-3.4-7.7-7.7V400
		c0-4.2,3.4-7.7,7.7-7.7h37.3c4.2,0,7.7,3.4,7.7,7.7V437.2z"/>
	<path d="M151.9,410.4c0-3.4-2.3-6-5-6s-5,2.8-5,6c0,3.3,2.3,6,5,6C149.7,416.5,151.9,413.8,151.9,410.4z"/>
	<path d="M168.8,404.4c-2.8,0-5,2.8-5,6c0,3.3,2.3,6,5,6c2.8,0,5-2.8,5-6S171.6,404.4,168.8,404.4z"/>
	<path d="M166.4,425.8h-17.1c-1.5,0-2.8,1.3-2.8,2.8s1.3,2.8,2.8,2.8h17.1c1.5,0,2.8-1.3,2.8-2.8
		C169.2,427.1,167.9,425.8,166.4,425.8L166.4,425.8z"/>
</g>
<g>
	<path d="M321.1,400.9c0-3.9,3.2-7.1,7.1-7.1h35.5c3.9,0,7.1,3.2,7.1,7.1v11.7l5.8,1.3V401c0-7.1-5.8-12.9-12.9-12.9h-35.4
		c-7.1,0-12.9,5.8-12.9,12.9v12.9l5.8-1.3L321.1,400.9z"/>
	<path d="M370.8,435.8v0.5c0,3.9-3.2,7.1-7.1,7.1h-35.5c-3.9,0-7.1-3.2-7.1-7.1v-0.5c-1.6,0.9-3.6,1.4-5.6,1.4h-0.2
		c0.5,6.7,6,12.1,12.9,12.1h35.5c6.8,0,12.5-5.3,12.9-12.1h-0.2C374.4,437.2,372.4,436.7,370.8,435.8L370.8,435.8z"/>
	<path d="M345.9,436.5c6.9,0,12.7-4.9,13.8-11.7c0.2-1.2-0.2-2.4-0.9-3.3c-0.8-0.9-2-1.5-3.2-1.5h-19.4c-1.3,0-2.4,0.5-3.2,1.5
		c-0.8,0.9-1.1,2.1-0.9,3.3C333.2,431.5,339,436.5,345.9,436.5L345.9,436.5z M354.6,425c-0.3,1-0.8,2-1.3,2.7
		c-2.3,0.2-4.7,0.4-7.3,0.4c-2.6,0-5-0.2-7.3-0.4c-0.6-0.9-1-1.7-1.3-2.7H354.6z"/>
	<path d="M331.3,415.2c0.5,0.6,1.3,0.9,2,0.9c0.6,0,1.2-0.2,1.7-0.6l5.5-4.6c0.6-0.5,0.9-1.3,0.9-2c0-0.8-0.3-1.6-0.9-2l-5.5-4.6
		c-1.1-0.9-2.8-0.8-3.8,0.3c-0.9,1.1-0.8,2.8,0.3,3.8l3.1,2.6l-3.1,2.6C330.5,412.4,330.4,414.1,331.3,415.2L331.3,415.2z"/>
	<path d="M360.5,402.6c-0.9-1.1-2.6-1.3-3.8-0.3l-5.5,4.6c-0.6,0.5-0.9,1.3-0.9,2c0,0.8,0.3,1.6,0.9,2l5.5,4.6
		c0.5,0.4,1.1,0.6,1.7,0.6c0.8,0,1.5-0.3,2-0.9c0.9-1.1,0.8-2.8-0.3-3.8l-3.1-2.6l3.1-2.6C361.3,405.4,361.4,403.7,360.5,402.6
		L360.5,402.6z"/>
	<path d="M322.6,426.8l1.9-8.9c0.2-0.5-0.4-1.1-1-1l-8.9,1.9c-5,1-7.6,7.1-4.4,11.1c0.2,0.2,0.4,0.5,0.6,0.7s0.5,0.4,0.7,0.6
		C315.5,434.3,321.5,431.8,322.6,426.8L322.6,426.8z"/>
	<path d="M377.4,418.7l-8.9-1.9c-0.5-0.2-1.1,0.4-1,1l1.9,8.9c1,5,7.1,7.6,11.1,4.4c0.2-0.2,0.5-0.4,0.7-0.6s0.5-0.5,0.6-0.7
		C385,425.7,382.4,419.7,377.4,418.7L377.4,418.7z"/>
</g>
<g>
	<path d="M531.4,413.7l2.2-2.2l2.2,2.2c0.4,0.4,1,0.7,1.5,0.7s1.1-0.2,1.5-0.7c0.9-0.9,0.9-2.3,0-3.2l-2.2-2.2l2.2-2.2
		c0.9-0.9,0.9-2.3,0-3.2c-0.9-0.9-2.3-0.9-3.2,0l-2.2,2.2l-2.1-2.1c-0.9-0.9-2.3-0.9-3.2,0s-0.9,2.3,0,3.2l2.2,2.2l-2.2,2.2
		c-0.9,0.9-0.9,2.3,0,3.2c0.4,0.4,1,0.7,1.5,0.7C530.3,414.5,530.9,414.2,531.4,413.7L531.4,413.7z"/>
	<path d="M558.3,403.2c-0.9-0.9-2.3-0.9-3.2,0l-2.2,2.2l-2.2-2.2c-0.9-0.9-2.3-0.9-3.2,0s-0.9,2.3,0,3.2l2.2,2.2l-2.2,2.2
		c-0.9,0.9-0.9,2.3,0,3.2c0.4,0.4,1,0.7,1.5,0.7s1.1-0.2,1.5-0.7l2.2-2.2l2.2,2.2c0.4,0.4,1,0.7,1.5,0.7s1.1-0.2,1.5-0.7
		c0.9-0.9,0.9-2.3,0-3.2l-2.2-2.2l2.2-2.2C559.2,405.5,559.2,404.1,558.3,403.2L558.3,403.2z"/>
	<path d="M554.2,423.5c-3.1-2.5-6.9-3.8-10.9-3.8c-4.2,0-8.2,1.5-11.4,4.2c-2.8,2.4-3.7,6-2.4,9.5c1.3,3.6,4.6,5.8,8.4,5.8h10.8
		c3.8,0,7.1-2.4,8.3-5.9C558.3,429.7,557.2,425.8,554.2,423.5L554.2,423.5z M552.8,431.9c-0.5,1.4-1.9,3-4.2,3h-10.8
		c-2.3,0-3.7-1.5-4.2-3c-0.3-0.7-0.9-2.9,1.1-4.6c2.4-2,5.4-3.2,8.5-3.2c3,0,5.8,1,8.1,2.8C553.2,428.4,553.4,430.5,552.8,431.9
		L552.8,431.9z"/>
	<path d="M562.3,386.7h-38c-7.1,0-12.9,5.8-12.9,12.9v38c0,7.1,5.8,12.9,12.9,12.9h38c7.1,0,12.9-5.8,12.9-12.9v-38
		C575.2,392.5,569.4,386.7,562.3,386.7L562.3,386.7z M570.8,437.7c0,4.6-3.8,8.5-8.5,8.5h-38c-4.6,0-8.5-3.8-8.5-8.5v-38
		c0-4.6,3.8-8.5,8.5-8.5h38c4.6,0,8.5,3.8,8.5,8.5V437.7L570.8,437.7z"/>
</g>
<g>
	<path d="M866.5,386.7h-37.2c-7.3,0-13.3,6-13.3,13.3v37.3c0,7.3,6,13.3,13.3,13.3h37.3c7.3,0,13.3-6,13.3-13.3V400
		C879.8,392.6,873.8,386.7,866.5,386.7z M874.2,437.2c0,4.2-3.4,7.7-7.7,7.7h-37.3c-4.2,0-7.7-3.4-7.7-7.7V400
		c0-4.2,3.4-7.7,7.7-7.7h37.3c4.2,0,7.7,3.4,7.7,7.7V437.2z"/>
	<path d="M834.4,411.2c0.5,0.7,1.3,1,2.2,1c0.6,0,1.3-0.2,1.8-0.7l5-4.2c0.6-0.5,1-1.3,1-2.2c0-0.8-0.3-1.6-1-2.2l-5-4
		c-1.2-1-3-0.8-4,0.3c-1,1.2-0.8,3,0.3,4l2.4,2l-2.4,2C833.6,408.4,833.4,410.1,834.4,411.2L834.4,411.2z"/>
	<path d="M857.4,411.7c0.5,0.5,1.1,0.7,1.8,0.7c0.8,0,1.6-0.3,2.2-1c1-1.2,0.8-3-0.3-4l-2.4-2l2.4-2c1.2-1,1.3-2.8,0.3-4
		s-2.8-1.3-4-0.3l-5,4.2c-0.6,0.5-1,1.3-1,2.2c0,0.8,0.3,1.6,1,2.2L857.4,411.7z"/>
	<path d="M864.8,417.2h-33.9c-1.3,0-2.3,1-2.3,2.3c0,5.1,2,9.9,5.6,13.6c3.6,3.6,8.5,5.6,13.6,5.6s9.9-2,13.6-5.6
		c3.6-3.6,5.6-8.5,5.6-13.6C867.1,418.2,866.1,417.2,864.8,417.2z M861,426h-26.2c-0.7-1.3-1.1-2.8-1.3-4.2h28.9
		C862.1,423.3,861.7,424.7,861,426L861,426z"/>
</g>
<g>
	<path d="M644.5,83.8c-1.3,0-2.6,0.1-3.9,0.3c0.3-1.5,0.5-3.1,0.5-4.6c0-13.9-11.3-25.2-25.2-25.2c-4.6,0-9.1,1.2-13,3.6
		c-8.4-12.3-22.4-19.8-37.4-19.8c-25,0-45.3,20.3-45.3,45.2c0,0.7,0,1.4,0.1,2.1c-3.1-1-6.4-1.6-9.7-1.6c-17.3,0-31.3,14-31.3,31.3
		c0,17.3,14,31.3,31.3,31.3h52.9c1.1,5.8,5.7,10.4,11.5,11.5v22.9h-40c-1.5,0-2.6,1.2-2.6,2.6v54.6c0,1.5,1.2,2.6,2.6,2.6h83
		c1.5,0,2.6-1.2,2.6-2.6v-54.6c0-1.5-1.2-2.6-2.6-2.6l-37.8,0v-22.9c5.8-1.1,10.4-5.7,11.5-11.5h52.9c17.3,0,31.3-14.1,31.3-31.3
		C675.8,97.8,661.8,83.8,644.5,83.8L644.5,83.8z M615.3,235.5h-77.8v-22.1h77.8V235.5z M615.3,186.1v22.1h-77.8v-22.1H615.3z
		 M577.5,152.9c-5,0-9.1-4.1-9.1-9.1c0-1.6,0.4-3.2,1.2-4.6c1.6-2.8,4.6-4.5,7.9-4.5s6.2,1.7,7.9,4.6c0.8,1.4,1.2,2.9,1.2,4.6
		C586.6,148.8,582.5,152.9,577.5,152.9L577.5,152.9z M644.5,141.2h-52.9c0-0.1-0.1-0.3-0.1-0.4c-0.1-0.5-0.3-1-0.4-1.5
		c-0.1-0.2-0.1-0.4-0.2-0.6c-0.3-0.7-0.6-1.4-1-2c-2.5-4.4-7.3-7.2-12.4-7.2c-0.6,0-1.3,0-1.9,0.1c-4.4,0.6-8.3,3.2-10.5,7
		c0,0,0,0,0,0c0,0,0,0,0,0s0,0,0,0c-0.4,0.6-0.7,1.3-0.9,2c-0.1,0.2-0.1,0.4-0.2,0.6c-0.2,0.5-0.3,1-0.4,1.5c0,0.1-0.1,0.3-0.1,0.4
		l-52.9,0c-14.4,0-26.1-11.7-26.1-26.1c0-14.4,11.7-26.1,26.1-26.1c4,0,8,1,11.6,2.8c0.9,0.4,1.9,0.4,2.7-0.2
		c0.8-0.6,1.2-1.5,1.1-2.5c-0.3-2.2-0.5-4.1-0.5-5.8c0-22,17.9-40,40-40c14,0,27.2,7.5,34.3,19.6c0.4,0.6,1,1.1,1.8,1.2
		c0.7,0.1,1.5,0,2.1-0.5c3.5-2.7,7.7-4.2,12.1-4.2c11,0,19.9,8.9,19.9,19.9c0,2.3-0.5,4.7-1.4,7.1c-0.4,0.9-0.2,2,0.5,2.7
		c0.7,0.7,1.7,1,2.6,0.8c2.4-0.7,4.7-1,7-1c14.4,0,26.1,11.7,26.1,26.1C670.5,129.5,658.8,141.2,644.5,141.2L644.5,141.2z"/>
	<path d="M553.4,204.3c3.9,0,7.1-3.2,7.1-7.1c0-3.9-3.2-7.1-7.1-7.1c-3.9,0-7.1,3.2-7.1,7.1C546.2,201,549.4,204.3,553.4,204.3z
		 M553.4,195.2c1,0,1.9,0.8,1.9,1.9s-0.8,1.9-1.9,1.9s-1.9-0.8-1.9-1.9C551.5,196.1,552.3,195.2,553.4,195.2z"/>
	<path d="M573.1,204.3c3.9,0,7.1-3.2,7.1-7.1c0-3.9-3.2-7.1-7.1-7.1c-3.9,0-7.1,3.2-7.1,7.1C565.9,201,569.1,204.3,573.1,204.3z
		 M573.1,195.2c1,0,1.9,0.8,1.9,1.9c0,1-0.8,1.9-1.9,1.9s-1.9-0.8-1.9-1.9C571.2,196.1,572,195.2,573.1,195.2z"/>
	<path d="M591.3,199.7H604c1.5,0,2.6-1.2,2.6-2.6c0-1.5-1.2-2.6-2.6-2.6l-12.7,0c-1.5,0-2.6,1.2-2.6,2.6
		C588.7,198.6,589.8,199.7,591.3,199.7z"/>
	<path d="M553.4,231.6c3.9,0,7.1-3.2,7.1-7.1c0-3.9-3.2-7.1-7.1-7.1c-3.9,0-7.1,3.2-7.1,7.1C546.2,228.4,549.4,231.6,553.4,231.6z
		 M553.4,222.5c1,0,1.9,0.8,1.9,1.9c0,1-0.8,1.9-1.9,1.9s-1.9-0.8-1.9-1.9C551.5,223.4,552.3,222.5,553.4,222.5z"/>
	<path d="M573.1,231.6c3.9,0,7.1-3.2,7.1-7.1c0-3.9-3.2-7.1-7.1-7.1c-3.9,0-7.1,3.2-7.1,7.1C565.9,228.4,569.1,231.6,573.1,231.6z
		 M573.1,222.5c1,0,1.9,0.8,1.9,1.9c0,1-0.8,1.9-1.9,1.9s-1.9-0.8-1.9-1.9C571.2,223.4,572,222.5,573.1,222.5z"/>
	<path d="M591.3,227.1H604c1.5,0,2.6-1.2,2.6-2.6c0-1.5-1.2-2.6-2.6-2.6l-12.7,0c-1.5,0-2.6,1.2-2.6,2.6
		C588.7,225.9,589.8,227.1,591.3,227.1z"/>
</g>
<text transform="matrix(1 0 0 1 534.7451 114.9747)" class="st46 st47">Server</text>
</svg>
